<?xml version="1.0" encoding="UTF-8"?>
<svg version="1.1" xmlns="http://www.w3.org/2000/svg" width="1024" height="1024">
<path d="M0 0 C337.92 0 675.84 0 1024 0 C1024 337.92 1024 675.84 1024 1024 C686.08 1024 348.16 1024 0 1024 C0 686.08 0 348.16 0 0 Z " fill="#F0EEEE" transform="translate(0,0)"/>
<path d="M0 0 C0.95928725 -0.00320648 1.91857451 -0.00641296 2.90693107 -0.0097166 C6.11016699 -0.01799487 9.31321488 -0.01209986 12.51645374 -0.00622082 C14.84078256 -0.00924249 17.16511038 -0.01313206 19.48943645 -0.01781338 C25.86838851 -0.02810015 32.24728441 -0.02590979 38.62624109 -0.02163279 C44.80199412 -0.01844464 50.97773789 -0.02657683 57.15348629 -0.03339304 C71.3425497 -0.04862339 85.53159525 -0.05033906 99.72066512 -0.04787002 C110.67996921 -0.04603628 121.63926746 -0.04779865 132.59857082 -0.05209446 C134.17394254 -0.05269687 135.74931425 -0.05329806 137.32468596 -0.05389806 C139.69873515 -0.05480533 142.07278434 -0.055714 144.44683352 -0.05663041 C166.51680967 -0.06505871 188.58678363 -0.06939654 210.65676117 -0.06522369 C211.48855592 -0.06506732 212.32035067 -0.06491094 213.17735132 -0.06474983 C217.39305742 -0.06394406 221.6087635 -0.06309829 225.82446959 -0.06223653 C226.6616962 -0.06206544 227.49892282 -0.06189435 228.36151993 -0.06171808 C230.05459573 -0.06137142 231.74767153 -0.06102289 233.44074732 -0.06067249 C259.77856216 -0.0553166 286.11634351 -0.06324246 312.45415211 -0.08170605 C342.05744363 -0.10243462 371.6607144 -0.11314704 401.26401359 -0.10913056 C404.42227542 -0.10873523 407.58053726 -0.10837368 410.7387991 -0.10803318 C411.51641962 -0.10794245 412.29404014 -0.10785172 413.09522492 -0.10775824 C424.82096724 -0.10659352 436.54668857 -0.11323102 448.27242565 -0.1238451 C461.61349823 -0.13590919 474.95452466 -0.13744223 488.29559793 -0.12505493 C495.10042958 -0.11901891 501.9051657 -0.11806859 508.70999241 -0.13005733 C514.94451084 -0.1409135 521.17886384 -0.13781567 527.41337452 -0.12379565 C529.663664 -0.121148 531.91396642 -0.12351735 534.16424318 -0.13153151 C564.11086418 -0.23074476 589.02022726 7.19877632 611.25322437 28.06697559 C626.97587494 44.58403377 637.18138334 67.79949747 637.13744545 90.66025734 C637.13979768 91.49614387 637.14214991 92.33203039 637.14457342 93.19324681 C637.15124278 96.00076361 637.15080582 98.8082339 637.15039539 101.61575794 C637.15369531 103.64647259 637.15742115 105.67718659 637.16153687 107.70789975 C637.17155061 113.29390166 637.17527267 118.87989283 637.17792618 124.46590245 C637.18183114 130.48867793 637.19140941 136.51144492 637.20013905 142.53421497 C637.21896492 156.39520201 637.22915924 170.25618966 637.23759973 184.11718583 C637.24180902 190.97076911 637.24703068 197.82435151 637.25228426 204.67793405 C637.27017467 228.15037486 637.28516883 251.62281592 637.29260445 275.09526253 C637.2930792 276.56850766 637.29355509 278.04175278 637.29403211 279.51499791 C637.29438667 280.61086757 637.29438667 280.61086757 637.2947484 281.72887602 C637.29594957 285.43019893 637.29716503 289.13152183 637.29839039 292.83284473 C637.29863054 293.5673768 637.29887069 294.30190887 637.29911812 295.05869949 C637.30700635 318.85969269 637.33042824 342.66063599 637.36294633 366.46160741 C637.3972833 391.63997785 637.41695924 416.81831911 637.42024869 441.99671334 C637.42066621 444.76356965 637.42114576 447.53042593 637.42167187 450.29728222 C637.42179506 450.97853336 637.42191825 451.65978451 637.42204518 452.36167963 C637.42437255 463.30215472 637.44000678 474.24257164 637.46051371 485.18302603 C637.48082077 496.19200123 637.48589394 507.20091634 637.47674308 518.20990822 C637.47220482 524.16843628 637.47405727 530.12677635 637.49350452 536.08527851 C637.51118263 541.54910089 637.51010066 547.01259878 637.49460723 552.47642484 C637.49223821 554.44423742 637.49651767 556.41207275 637.50843588 558.37985066 C637.5980227 574.15935049 635.64972948 588.62358267 629.19072437 603.19197559 C628.84235523 603.99208057 628.49398609 604.79218555 628.13506031 605.61653614 C625.39621521 611.73034118 622.28079739 617.07679551 618.00322437 622.25447559 C617.58589039 622.78347462 617.1685564 623.31247364 616.73857594 623.85750294 C599.99824112 645.05759526 577.92517262 657.53752347 551.00322437 661.25447559 C547.86453434 661.39876104 544.72949788 661.39578735 541.58790016 661.39148998 C540.64286854 661.39414181 539.69783692 661.39679364 538.72416797 661.39952582 C535.54535161 661.40720863 532.36657394 661.40777761 529.18774891 661.40837574 C526.89034758 661.41239105 524.59294696 661.41682938 522.29554719 661.4216553 C515.97230571 661.4336193 509.64907186 661.43926887 503.32582128 661.44383645 C497.20932492 661.44870365 491.09283669 661.45915895 484.97634648 661.46884591 C467.808681 661.49567716 450.64100986 661.51073029 433.47332957 661.52418703 C428.82138447 661.52785842 424.16943968 661.53186128 419.51749492 661.53593969 C390.625406 661.56120431 361.73331649 661.58324597 332.84121895 661.59566784 C326.14872008 661.59858903 319.45622124 661.60155658 312.76372242 661.60457325 C311.93228709 661.60494416 311.10085177 661.60531507 310.24422143 661.60569722 C283.30458202 661.61784492 256.36500805 661.64877656 229.42539935 661.69049477 C201.71545838 661.73332742 174.00555197 661.75991463 146.29557701 661.76514255 C142.37771886 661.76588294 138.45986077 661.76679361 134.54200268 661.76780033 C133.38547106 661.76808625 133.38547106 661.76808625 132.20557516 661.76837795 C119.82238287 661.77188466 107.43927281 661.79215088 95.05611066 661.81859697 C82.59530282 661.84480639 70.13458952 661.85244175 57.67375807 661.84149568 C50.92914558 661.83606302 44.18482498 661.8391412 37.44023418 661.86396122 C31.25583675 661.886529 25.07188558 661.88565493 18.88747992 661.86675735 C16.65987354 661.86396792 14.43223641 661.86949639 12.20467929 661.88457029 C-5.62110676 661.99774216 -22.07257565 659.76608909 -37.99677563 651.25447559 C-39.09118969 650.70275684 -40.18560375 650.15103809 -41.31318188 649.58260059 C-50.51696121 644.78007491 -57.73444852 638.61887335 -64.99677563 631.25447559 C-65.74701 630.51455372 -66.49724438 629.77463184 -67.27021313 629.01228809 C-80.14768404 615.52402805 -87.61191197 597.34766768 -90.99677563 579.25447559 C-91.17026366 578.37578686 -91.34375169 577.49709812 -91.52249694 576.59178245 C-92.07593039 572.69749563 -92.13732629 568.87862325 -92.12820339 564.95522213 C-92.13025603 564.13085462 -92.13230866 563.30648712 -92.13442349 562.45713878 C-92.14008765 559.68881456 -92.13863696 556.92054018 -92.13721752 554.15221119 C-92.13980151 552.14965758 -92.14281476 550.14710449 -92.14622092 548.14455211 C-92.15429053 542.63642901 -92.15608048 537.12831894 -92.15681839 531.62019062 C-92.15866906 525.68128071 -92.16621656 519.74237757 -92.17295361 513.80347157 C-92.18724653 500.13604854 -92.19306394 486.4686265 -92.19764555 472.80119771 C-92.19998277 466.04361698 -92.2035856 459.28603711 -92.20734093 452.52845704 C-92.22017688 429.38561786 -92.23089508 406.24277915 -92.23434353 383.09993649 C-92.23456516 381.64742036 -92.23478694 380.19490424 -92.23500888 378.74238812 C-92.23522952 377.28640457 -92.23545 375.83042101 -92.23567033 374.37443745 C-92.23611287 371.45359079 -92.23655999 368.53274413 -92.23701 365.61189747 C-92.23711939 364.88769854 -92.23722878 364.16349961 -92.23734149 363.41735526 C-92.24097002 339.94889458 -92.25688214 316.48046483 -92.28020037 293.01201599 C-92.30482193 268.18631518 -92.31851749 243.36063204 -92.31971145 218.53491867 C-92.31988289 215.80711833 -92.32009832 213.07931801 -92.32034588 210.35151768 C-92.32040165 209.67988116 -92.32045742 209.00824465 -92.32051487 208.31625551 C-92.3215924 198.19521731 -92.33088395 188.07420781 -92.34453106 177.95317936 C-92.35995055 166.4316814 -92.36504164 154.91023644 -92.35679296 143.38873012 C-92.35289278 137.51339324 -92.35378519 131.638163 -92.3678503 125.76283932 C-92.38062716 120.376215 -92.37935848 114.98977706 -92.36725959 109.60315286 C-92.36530912 107.66227797 -92.36835069 105.7213897 -92.37710395 103.78053357 C-92.50272551 74.02440366 -84.1912905 47.7194149 -62.99677563 26.25447559 C-46.09088038 9.90060958 -23.6444225 -0.11889875 0 0 Z " fill="#1B82B9" transform="translate(238.99677562713623,72.7455244064331)"/>
<path d="M0 0 C2.57392435 1.94613792 5.03856936 3.97964167 7.49609375 6.0703125 C11.62644127 9.25345084 16.14163045 11.17903296 21 13 C21.65355469 13.24621094 22.30710937 13.49242187 22.98046875 13.74609375 C34.61114018 17.34193033 47.48922013 15.2402999 58.203125 9.90234375 C61.16843467 8.12436336 63.88642227 6.08543458 66.6484375 4.0078125 C67.58945312 3.30398437 68.53046875 2.60015625 69.5 1.875 C70.3559375 1.21242188 71.211875 0.54984375 72.09375 -0.1328125 C78.62777458 -4.33074765 84.61061607 -5.53652199 92.3125 -5.4375 C93.56426025 -5.42505249 93.56426025 -5.42505249 94.84130859 -5.41235352 C107.19021993 -5.0753906 115.42113108 -0.40041859 124.16015625 8.1015625 C132.76484219 17.20483772 137.41193933 27.74194826 137.3125 40.3125 C137.30686035 41.06088135 137.3012207 41.8092627 137.29541016 42.58032227 C137.02511835 54.94282726 132.00865968 64.67648575 124 74 C117.11480674 80.10192357 109.12094982 84.23681535 100.90209961 88.23510742 C92.5247814 92.42159195 86.18027454 97.31817668 82.125 105.875 C81.29355469 107.57269531 81.29355469 107.57269531 80.4453125 109.3046875 C77.39551775 117.10227083 76.71306857 124.39851765 76.8046875 132.72265625 C76.8075174 133.70874374 76.81034729 134.69483124 76.81326294 135.71080017 C76.82436495 138.82816237 76.84945055 141.94522617 76.875 145.0625 C76.88504271 147.18944895 76.89416629 149.31640244 76.90234375 151.44335938 C76.92427152 156.6290194 76.95873154 161.81445929 77 167 C77.77851318 167.31163086 78.55702637 167.62326172 79.35913086 167.94433594 C85.33257744 170.37661549 91.0700748 172.86296578 96.5625 176.25 C97.19325439 176.63567139 97.82400879 177.02134277 98.47387695 177.41870117 C104.41149416 181.12829964 109.80680025 185.29958563 115 190 C115.97582031 190.88171875 116.95164062 191.7634375 117.95703125 192.671875 C133.08631586 206.8228787 144.71368366 225.92732056 150 246 C150.29777344 247.11632812 150.59554687 248.23265625 150.90234375 249.3828125 C157.91368856 280.33612275 151.54026106 311.32632636 135 338 C121.37290259 358.38039559 100.57859441 377.14046853 77 385 C76.92334704 391.9009685 76.87114935 398.80182545 76.83520508 405.703125 C76.82020562 408.04626569 76.79979941 410.38937873 76.77368164 412.73242188 C76.73690715 416.11855942 76.72018463 419.50432278 76.70703125 422.890625 C76.69154739 423.92237854 76.67606354 424.95413208 76.66011047 426.01715088 C76.65689754 440.19833301 81.18104208 454.21696089 89.92578125 465.48046875 C95.05220304 470.4675315 101.36628228 473.38287089 107.68457031 476.5715332 C114.04378577 479.8447416 119.05809134 483.80811152 124 489 C124.58007812 489.57234375 125.16015625 490.1446875 125.7578125 490.734375 C133.85614226 499.28035113 137.48083042 511.26045852 137.25 522.81640625 C136.15583932 536.74985872 130.39877551 548.66455792 120 558 C108.98055868 565.75229877 98.36351488 568.34611079 85 567 C76.35755071 565.12444997 69.56993463 560.4879799 62.640625 555.19921875 C51.91620522 547.22421232 41.34765318 544.58587026 28 546 C19.3822686 547.94417768 12.57177947 552.45783137 5.67578125 557.80078125 C-5.36687602 566.10500177 -17.43010708 568.52425239 -31 567 C-43.37157314 564.04985564 -53.292758 556.76967249 -60 546 C-66.60344695 535.06937963 -69.01406338 522.34206799 -66.30859375 509.79296875 C-61.0093301 492.52047343 -50.20731024 482.49537161 -34.65234375 474.21875 C-33.50894531 473.6103125 -32.36554688 473.001875 -31.1875 472.375 C-30.12917969 471.82585937 -29.07085937 471.27671875 -27.98046875 470.7109375 C-16.96496422 464.38748929 -11.53997035 453.89254503 -8 442 C-6.87568232 435.80378294 -6.78293428 429.6651353 -6.68359375 423.37890625 C-6.6524221 421.72905983 -6.6524221 421.72905983 -6.62062073 420.04588318 C-6.5555258 416.5514823 -6.49642731 413.05700979 -6.4375 409.5625 C-6.39427665 407.18553963 -6.35066117 404.80858636 -6.30664062 402.43164062 C-6.19988572 396.62116825 -6.09804679 390.8106255 -6 385 C-6.60885544 384.80346832 -7.21771088 384.60693665 -7.84501648 384.40444946 C-8.64857071 384.14159149 -9.45212494 383.87873352 -10.2800293 383.60791016 C-11.07450974 383.34950348 -11.86899017 383.0910968 -12.68754578 382.82485962 C-23.05102092 379.12817578 -32.54358379 371.84061563 -41 365 C-42.27810547 363.97132813 -42.27810547 363.97132813 -43.58203125 362.921875 C-65.14352369 344.58611765 -77.95458814 317.69014672 -82 290 C-83.79793385 257.07673123 -78.08559426 226.16906349 -55.53076172 200.72314453 C-53.09063759 198.07597957 -50.56682799 195.52384283 -48 193 C-47.17757812 192.17886719 -46.35515625 191.35773438 -45.5078125 190.51171875 C-37.15767566 182.58593313 -18.23550328 167 -6 167 C-6.06940963 160.8106552 -6.15762848 154.62195201 -6.26245117 148.43310547 C-6.2954781 146.33259262 -6.32357739 144.23199577 -6.34643555 142.13134766 C-6.53870549 124.92523306 -6.76444872 107.75959924 -19.8125 94.8125 C-24.62837589 90.80608373 -30.08282219 88.46142155 -35.7565918 85.93115234 C-41.53658925 83.32570438 -46.31860239 80.31597206 -51 76 C-51.63164062 75.44699219 -52.26328125 74.89398438 -52.9140625 74.32421875 C-61.29315739 66.56909902 -66.42075084 55.35849427 -67.125 43.98046875 C-67.48503634 31.13167171 -63.66644097 18.61433295 -55 9 C-41.1236821 -5.55387248 -17.82696031 -11.03573733 0 0 Z " fill="#D83228" transform="translate(475,125)"/>
<path d="M0 0 C1.02738281 0.33773438 2.05476563 0.67546875 3.11328125 1.0234375 C15.12143648 4.91461005 26.23488642 7.39303637 38.9375 7.375 C40.01491455 7.37483887 41.0923291 7.37467773 42.20239258 7.37451172 C53.48290843 7.21657951 64.60806485 5.53687715 75.30078125 1.8671875 C78 1 78 1 82 1 C82.00586624 1.58722839 82.01173248 2.17445679 82.01777649 2.77947998 C82.08219397 8.94524867 82.16673205 15.11051848 82.26245117 21.27587891 C82.29550658 23.57040794 82.32359745 25.8650145 82.34643555 28.15966797 C82.38034037 31.47657007 82.43267179 34.79277392 82.48828125 38.109375 C82.49786613 39.62419464 82.49786613 39.62419464 82.50764465 41.1696167 C82.79665392 55.47994999 87.34250667 72.13052591 97.9375 82.4375 C102.73824939 86.23809326 108.24113718 88.82438556 113.68457031 91.5715332 C120.04378577 94.8447416 125.05809134 98.80811152 130 104 C130.87011719 104.85851562 130.87011719 104.85851562 131.7578125 105.734375 C139.85614226 114.28035113 143.48083042 126.26045852 143.25 137.81640625 C142.15583932 151.74985872 136.39877551 163.66455792 126 173 C114.98055868 180.75229877 104.36351488 183.34611079 91 182 C82.35755071 180.12444997 75.56993463 175.4879799 68.640625 170.19921875 C57.91620522 162.22421232 47.34765318 159.58587026 34 161 C25.3822686 162.94417768 18.57177947 167.45783137 11.67578125 172.80078125 C0.63312398 181.10500177 -11.43010708 183.52425239 -25 182 C-37.37157314 179.04985564 -47.292758 171.76967249 -54 161 C-60.60344695 150.06937963 -63.01406338 137.34206799 -60.30859375 124.79296875 C-55.0093301 107.52047343 -44.20731024 97.49537161 -28.65234375 89.21875 C-27.50894531 88.6103125 -26.36554688 88.001875 -25.1875 87.375 C-24.12917969 86.82585937 -23.07085937 86.27671875 -21.98046875 85.7109375 C-10.96496422 79.38748929 -5.53997035 68.89254503 -2 57 C-0.87568232 50.80378294 -0.78293428 44.6651353 -0.68359375 38.37890625 C-0.66281265 37.27900864 -0.64203156 36.17911102 -0.62062073 35.04588318 C-0.5555258 31.5514823 -0.49642731 28.05700979 -0.4375 24.5625 C-0.39427665 22.18553963 -0.35066117 19.80858636 -0.30664062 17.43164062 C-0.19988572 11.62116825 -0.09804679 5.8106255 0 0 Z " fill="#F0EEEE" transform="translate(469,510)"/>
<path d="M0 0 C2.57392435 1.94613792 5.03856936 3.97964167 7.49609375 6.0703125 C11.62644127 9.25345084 16.14163045 11.17903296 21 13 C21.65355469 13.24621094 22.30710937 13.49242187 22.98046875 13.74609375 C34.61114018 17.34193033 47.48922013 15.2402999 58.203125 9.90234375 C61.16843467 8.12436336 63.88642227 6.08543458 66.6484375 4.0078125 C67.58945312 3.30398437 68.53046875 2.60015625 69.5 1.875 C70.3559375 1.21242188 71.211875 0.54984375 72.09375 -0.1328125 C78.62777458 -4.33074765 84.61061607 -5.53652199 92.3125 -5.4375 C93.56426025 -5.42505249 93.56426025 -5.42505249 94.84130859 -5.41235352 C107.19021993 -5.0753906 115.42113108 -0.40041859 124.16015625 8.1015625 C132.76484219 17.20483772 137.41193933 27.74194826 137.3125 40.3125 C137.30686035 41.06088135 137.3012207 41.8092627 137.29541016 42.58032227 C137.02511835 54.94282726 132.00865968 64.67648575 124 74 C117.11480674 80.10192357 109.12094982 84.23681535 100.90209961 88.23510742 C92.5247814 92.42159195 86.18027454 97.31817668 82.125 105.875 C81.29355469 107.57269531 81.29355469 107.57269531 80.4453125 109.3046875 C77.41774871 117.04543167 76.68769883 124.46042588 76.5859375 132.72265625 C76.56657135 133.70874374 76.5472052 134.69483124 76.5272522 135.71080017 C76.46797336 138.82794835 76.42127961 141.94513451 76.375 145.0625 C76.33677256 147.1894683 76.29771813 149.3164219 76.2578125 151.44335938 C76.16231491 156.62878544 76.07809527 161.81428384 76 167 C74.90042969 166.73445312 73.80085937 166.46890625 72.66796875 166.1953125 C60.04296188 163.16701421 48.11978984 160.60804248 35.0625 160.625 C33.89041992 160.62516113 32.71833984 160.62532227 31.51074219 160.62548828 C18.46158332 160.79433466 6.47756951 163.41002178 -6 167 C-6.01458252 165.6996582 -6.02916504 164.39931641 -6.04418945 163.05957031 C-6.10264905 158.18381774 -6.17987481 153.30850425 -6.26245117 148.43310547 C-6.2954781 146.33259262 -6.32357739 144.23199577 -6.34643555 142.13134766 C-6.53870549 124.92523306 -6.76444872 107.75959924 -19.8125 94.8125 C-24.62837589 90.80608373 -30.08282219 88.46142155 -35.7565918 85.93115234 C-41.53658925 83.32570438 -46.31860239 80.31597206 -51 76 C-51.94746094 75.17048828 -51.94746094 75.17048828 -52.9140625 74.32421875 C-61.29315739 66.56909902 -66.42075084 55.35849427 -67.125 43.98046875 C-67.48503634 31.13167171 -63.66644097 18.61433295 -55 9 C-41.1236821 -5.55387248 -17.82696031 -11.03573733 0 0 Z " fill="#F0EEEE" transform="translate(475,125)"/>
<path d="M0 0 C4.71362305 1.9901964 7.72172827 5.44345654 10 10 C10.49252649 16.40284433 9.10915217 20.41226511 5.0546875 25.38671875 C4.33539062 26.14597656 3.61609375 26.90523438 2.875 27.6875 C-0.38119457 31.20187181 -3.49280344 34.77002111 -6.5 38.5 C-9.4081338 42.0947765 -12.38541332 45.58260628 -15.5 49 C-19.34558741 53.22416855 -22.96730971 57.58953073 -26.5625 62.02734375 C-30.77122483 67.16009951 -35.11906527 72.17345894 -39.45166016 77.20166016 C-41.97292963 80.13002203 -44.48602111 83.0653799 -47 86 C-47.49258301 86.57435791 -47.98516602 87.14871582 -48.49267578 87.74047852 C-51.034167 90.70389213 -53.57245853 93.66995764 -56.10546875 96.640625 C-74.060783 117.68280465 -74.060783 117.68280465 -78.1015625 118.34375 C-78.93429687 118.3953125 -79.76703125 118.446875 -80.625 118.5 C-81.85089844 118.60828125 -81.85089844 118.60828125 -83.1015625 118.71875 C-87.79428319 117.55505646 -90.5945597 114.31206778 -94 111 C-94.76151367 110.26475098 -95.52302734 109.52950195 -96.30761719 108.77197266 C-98.74591204 106.38811741 -101.15704944 103.97946907 -103.5625 101.5625 C-104.37396484 100.75490234 -105.18542969 99.94730469 -106.02148438 99.11523438 C-109.64539067 95.48547836 -113.19516166 91.83979722 -116.5390625 87.94921875 C-121.08734622 82.65841202 -126.12383332 77.86366583 -131.12304688 73.00390625 C-131.85201172 72.28589844 -132.58097656 71.56789063 -133.33203125 70.828125 C-133.98921143 70.1877832 -134.6463916 69.54744141 -135.32348633 68.88769531 C-138.62467285 65.17067562 -139.46188568 62.046531 -139.3125 57.0234375 C-138.58654866 52.32290256 -135.71282925 49.61562526 -132.25 46.625 C-128.38666823 44.69333411 -125.23497105 43.94125724 -121 45 C-115.76114095 48.10482978 -111.69234713 52.01613752 -107.4140625 56.3203125 C-106.71227875 57.0201828 -106.010495 57.7200531 -105.28744507 58.44113159 C-103.81433421 59.91288749 -102.34372181 61.38714794 -100.87548828 62.86376953 C-98.61843808 65.13159324 -96.350834 67.38847183 -94.08203125 69.64453125 C-92.65039937 71.07748358 -91.2193874 72.51105558 -89.7890625 73.9453125 C-89.10792389 74.62240265 -88.42678528 75.2994928 -87.7250061 75.99710083 C-86.79305923 76.93850418 -86.79305923 76.93850418 -85.84228516 77.89892578 C-85.29190582 78.4508963 -84.74152649 79.00286682 -84.17446899 79.57156372 C-83 81 -83 81 -83 83 C-82.34 83 -81.68 83 -81 83 C-80.75378906 82.43410156 -80.50757813 81.86820312 -80.25390625 81.28515625 C-78.78463776 78.60751742 -77.02247565 76.66956388 -74.9375 74.4375 C-71.66981527 70.87703072 -68.53520807 67.2606708 -65.5 63.5 C-62.5918662 59.9052235 -59.61458668 56.41739372 -56.5 53 C-53.47717579 49.68010514 -50.57487839 46.30235888 -47.75 42.8125 C-42.54593843 36.38661528 -37.11008896 30.1717993 -31.68164062 23.93603516 C-28.92202222 20.75894835 -26.17804496 17.56854168 -23.4375 14.375 C-22.70503052 13.5236145 -22.70503052 13.5236145 -21.95776367 12.6550293 C-19.85873699 10.20732466 -17.79748929 7.74398912 -15.796875 5.21484375 C-11.40927548 -0.19334957 -6.62863454 -0.88140314 0 0 Z " fill="#F0EEEE" transform="translate(575,342)"/>
<path d="M0 0 C7.01742438 4.95037818 10.89115776 12.89074794 13.64453125 20.8671875 C15.70382568 33.22295407 14.48862279 46.95534131 7.25 57.4375 C0.91045062 64.968694 -6.47066771 69.37336977 -16.296875 70.31640625 C-26.59283945 70.66485046 -34.79005969 68.9548361 -42.875 62.375 C-51.42608875 54.12985361 -53.98019742 43.76295261 -54.375 32.25 C-54.19258839 21.69292825 -51.57802364 11.64786718 -44 4 C-31.58765314 -7.27926956 -14.38339089 -8.63443986 0 0 Z " fill="#0D1B1F" transform="translate(411,783)"/>
<path d="M0 0 C6.99768278 5.26492323 11.6537776 14.22520232 13.53515625 22.69140625 C14.86646433 34.7682724 14.25575159 46.82109205 7.11328125 57.10546875 C0.46195267 64.98729312 -7.05782671 68.96269168 -17.3125 69.984375 C-27.34875849 70.34997314 -35.47201897 67.81057524 -43.3203125 61.484375 C-51.38964092 53.41504658 -54.22293265 42.71170086 -54.51171875 31.60546875 C-54.22463563 20.63650117 -50.84260857 11.18498997 -43.54296875 2.84765625 C-31.60259407 -8.36052564 -13.42043644 -8.36630498 0 0 Z " fill="#0D1B1E" transform="translate(758.13671875,783.33203125)"/>
<path d="M0 0 C10.38775413 6.40638495 15.38366118 14.66160632 18.2421875 26.3828125 C19.30025938 38.12002852 18.3913525 49.84856855 11.4921875 59.8203125 C4.91566003 67.61349755 -2.54183785 71.60035742 -12.67578125 72.69921875 C-21.94248212 73.07084582 -30.81015197 70.69845958 -38.19921875 64.921875 C-45.67958519 57.53524749 -49.09643815 48.45096593 -49.27685547 38.109375 C-49.27057129 37.12710938 -49.26428711 36.14484375 -49.2578125 35.1328125 C-49.25281738 34.11445312 -49.24782227 33.09609375 -49.24267578 32.046875 C-49.0054681 21.81259043 -46.6516829 13.45973888 -39.42578125 5.84375 C-28.84029392 -3.4278478 -12.91778106 -6.21967236 0 0 Z " fill="#0D1B1E" transform="translate(697.7578125,886.6171875)"/>
<path d="M0 0 C6.53039513 5.00805901 10.9552828 12.86098019 12.98046875 20.75 C14.38653853 34.67636925 13.89599994 48.01448376 5.41796875 59.6875 C0.37534167 64.98093838 -8.50679843 69.42088064 -15.8046875 69.953125 C-26.96070726 70.11268667 -35.72115555 68.60126494 -44.01953125 60.75 C-52.28398527 52.19858577 -54.63588813 41.61465133 -54.4921875 30.04931641 C-54.0774985 20.03142179 -51.0904842 11.03275569 -44.01953125 3.75 C-31.63230372 -7.53214291 -14.41347356 -8.92129891 0 0 Z " fill="#0D1B1E" transform="translate(154.01953125,783.25)"/>
<path d="M0 0 C41.72093023 0 41.72093023 0 52.55859375 10.51171875 C61.11666088 20.18715963 60.63254192 31.4728313 60.17041016 43.63623047 C59.57188402 51.93842255 55.97188454 58.15155841 50.265625 64.05859375 C36.2574175 76.06217845 17.36132304 73 0 73 C0 48.91 0 24.82 0 0 Z " fill="#0E1D21" transform="translate(236,885)"/>
<path d="M0 0 C7.59 0 15.18 0 23 0 C26.63394707 11.26523592 30.09208046 22.56473847 33.375 33.9375 C33.73271484 35.1637207 34.09042969 36.38994141 34.45898438 37.65332031 C34.78962891 38.80799805 35.12027344 39.96267578 35.4609375 41.15234375 C35.90638916 42.6990979 35.90638916 42.6990979 36.36083984 44.27709961 C37 47 37 47 37 51 C37.66 51 38.32 51 39 51 C39.11029541 50.03666748 39.22059082 49.07333496 39.33422852 48.08081055 C39.99427306 43.48655784 41.30540101 39.14018758 42.65234375 34.70703125 C42.91253799 33.83858078 43.17273224 32.97013031 43.44081116 32.07536316 C43.98894999 30.25011164 44.53956569 28.42560229 45.0925293 26.60180664 C45.93745238 23.8126572 46.77299355 21.02082048 47.60742188 18.22851562 C48.14267489 16.45035389 48.67846374 14.67235335 49.21484375 12.89453125 C49.46386948 12.0621846 49.7128952 11.22983795 49.96946716 10.37226868 C50.20633743 9.59433456 50.4432077 8.81640045 50.68725586 8.01489258 C50.89297714 7.33429276 51.09869843 6.65369293 51.31065369 5.95246887 C52 4 52 4 54 0 C60.93 0 67.86 0 75 0 C75 24.09 75 48.18 75 73 C70.38 73 65.76 73 61 73 C60.67 57.16 60.34 41.32 60 25 C58.85660156 28.30902344 57.71320312 31.61804688 56.53515625 35.02734375 C55.43046618 38.21793423 54.32477955 41.40817768 53.21899414 44.59838867 C52.4487434 46.82231086 51.67953547 49.04659451 50.91137695 51.27124023 C49.80952022 54.46172289 48.70396682 57.65090318 47.59765625 60.83984375 C47.25283707 61.84087631 46.90801788 62.84190887 46.55274963 63.87327576 C46.23249313 64.79415482 45.91223663 65.71503387 45.58227539 66.66381836 C45.15924889 67.88626503 45.15924889 67.88626503 44.72767639 69.13340759 C44 71 44 71 43 72 C41.14712498 72.07226502 39.29166122 72.0838122 37.4375 72.0625 C36.42558594 72.05347656 35.41367187 72.04445313 34.37109375 72.03515625 C33.58863281 72.02355469 32.80617188 72.01195312 32 72 C28.34224727 62.4244197 24.82362812 52.80075518 21.36810303 43.1505127 C20.69332709 41.26627153 20.01683693 39.38264454 19.34033203 37.49902344 C18.92251465 36.32887695 18.50469727 35.15873047 18.07421875 33.953125 C17.69869873 32.90286133 17.32317871 31.85259766 16.9362793 30.77050781 C16 28 16 28 15 24 C14.67 40.17 14.34 56.34 14 73 C9.38 73 4.76 73 0 73 C0 48.91 0 24.82 0 0 Z " fill="#0C1B1E" transform="translate(783,779)"/>
<path d="M0 0 C40.69230769 0 40.69230769 0 47.5 6.375 C48.1290625 6.93960938 48.758125 7.50421875 49.40625 8.0859375 C53.58854783 13.10879518 53.43206932 18.50342114 53.3046875 24.7734375 C52.78715108 30.2540155 51.28922696 34.09389905 47.00585938 37.66040039 C46.29236328 38.17594482 45.57886719 38.69148926 44.84375 39.22265625 C44.12380859 39.74738525 43.40386719 40.27211426 42.66210938 40.81274414 C41.83936523 41.40043579 41.83936523 41.40043579 41 42 C41.63615234 43.25659424 41.63615234 43.25659424 42.28515625 44.53857422 C43.8537893 47.6417958 45.41882805 50.74677504 46.98144531 53.85302734 C47.65904347 55.19815388 48.33807459 56.54255956 49.01855469 57.88623047 C49.99529838 59.81551284 50.96689277 61.74731218 51.9375 63.6796875 C52.52402344 64.84226074 53.11054687 66.00483398 53.71484375 67.20263672 C55 70 55 70 55 72 C49.39 72 43.78 72 38 72 C36.28748286 68.33541718 34.57730952 64.66988053 32.87304688 61.00146484 C32.29238479 59.75343107 31.71035931 58.50603071 31.12695312 57.25927734 C30.28939753 55.4687886 29.45712034 53.6758337 28.625 51.8828125 C28.12226562 50.80402832 27.61953125 49.72524414 27.1015625 48.61376953 C26 46 26 46 26 44 C22.37 44 18.74 44 15 44 C15 53.24 15 62.48 15 72 C10.05 72 5.1 72 0 72 C0 48.24 0 24.48 0 0 Z " fill="#0C1A1D" transform="translate(570,779)"/>
<path d="M0 0 C5.28 0 10.56 0 16 0 C19.10319403 3.76144731 20.86253001 6.35920008 22.83154297 10.62255859 C25.31706959 15.67982108 28.31903113 20.46600588 31.1875 25.3125 C32.88549458 28.23858651 34.58045961 31.1664028 36.27416992 34.0949707 C38.45547665 37.76668788 40.73648838 41.37838141 43 45 C43.33 30.15 43.66 15.3 44 0 C48.95 0 53.9 0 59 0 C59 24.09 59 48.18 59 73 C54.05 73 49.1 73 44 73 C40.92695787 69.75760537 39.8024906 67.90812438 38 64 C37.00056978 62.29173273 35.99987438 60.58405781 34.97616577 58.89022827 C33.85644668 57.03431652 32.76185288 55.16566448 31.67382812 53.29101562 C31.30588135 52.65719971 30.93793457 52.02338379 30.55883789 51.37036133 C30.18879639 50.73251709 29.81875488 50.09467285 29.4375 49.4375 C27.95869013 46.8935625 26.47788352 44.35079647 24.99609375 41.80859375 C24.64598236 41.20639008 24.29587097 40.6041864 23.93515015 39.98373413 C22.01137798 36.68641967 20.03237962 33.43657871 17.97265625 30.22265625 C16 27 16 27 16 25 C15.34 25 14.68 25 14 25 C14 40.51 14 56.02 14 72 C9.38 72 4.76 72 0 72 C0 48.24 0 24.48 0 0 Z " fill="#0C1A1D" transform="translate(728,885)"/>
<path d="M0 0 C6.6 0 13.2 0 20 0 C23.00520749 8.92527166 26.00531906 17.85221163 28.99648285 26.78219986 C30.3855864 30.92863178 31.77691378 35.07428955 33.17333984 39.21826172 C34.52075731 43.2170688 35.86231124 47.21779877 37.19981384 51.21993256 C37.71125228 52.74685431 38.2248034 54.2730701 38.74049377 55.7985611 C39.46215065 57.9345177 40.17627073 60.07285571 40.88867188 62.21191406 C41.2972644 63.4288092 41.70585693 64.64570435 42.12683105 65.8994751 C43 69 43 69 43 73 C37.72 73 32.44 73 27 73 C26.175 70.73125 25.35 68.4625 24.5 66.125 C24.23896484 65.41230957 23.97792969 64.69961914 23.70898438 63.96533203 C22 59.22222222 22 59.22222222 22 57 C9.625 57.495 9.625 57.495 -3 58 C-4.65 62.95 -6.3 67.9 -8 73 C-13.28 73 -18.56 73 -24 73 C-21.77280235 64.50493449 -19.15825699 56.196421 -16.3671875 47.87109375 C-15.92524616 46.5464651 -15.48352875 45.22176172 -15.04202271 43.89698792 C-14.12443908 41.14578758 -13.2048687 38.39526278 -12.28369141 35.64526367 C-11.10256627 32.11902237 -9.92548307 28.59144806 -8.74972343 25.06341457 C-7.84160121 22.33931927 -6.93191932 19.61574699 -6.02170181 16.89235115 C-5.58675418 15.59068841 -5.15216877 14.28890458 -4.71795273 12.9869976 C-4.11409761 11.17759447 -3.508031 9.36892982 -2.90185547 7.56030273 C-2.55782684 6.53202866 -2.21379822 5.50375458 -1.85934448 4.44432068 C-1 2 -1 2 0 0 Z " fill="#0D1B1F" transform="translate(518,779)"/>
<path d="M0 0 C0.79075928 0.00523682 1.58151855 0.01047363 2.39624023 0.01586914 C3.67724609 0.02070312 3.67724609 0.02070312 4.98413086 0.02563477 C5.88196289 0.03401367 6.77979492 0.04239258 7.70483398 0.05102539 C8.6065332 0.05553711 9.50823242 0.06004883 10.43725586 0.06469727 C12.67234712 0.07652315 14.90730835 0.09300319 17.14233398 0.11352539 C30.74920574 39.65168062 30.74920574 39.65168062 36.51733398 57.42602539 C36.89172607 58.56716797 37.26611816 59.70831055 37.65185547 60.8840332 C37.98644775 61.92527344 38.32104004 62.96651367 38.66577148 64.03930664 C38.95371582 64.93045166 39.24166016 65.82159668 39.53833008 66.73974609 C40.14233398 69.11352539 40.14233398 69.11352539 40.14233398 73.11352539 C34.86233398 73.11352539 29.58233398 73.11352539 24.14233398 73.11352539 C20.14233398 60.48852539 20.14233398 60.48852539 20.14233398 57.11352539 C11.56233398 57.11352539 2.98233398 57.11352539 -5.85766602 57.11352539 C-6.51766602 60.08352539 -7.17766602 63.05352539 -7.85766602 66.11352539 C-8.51766602 68.42352539 -9.17766602 70.73352539 -9.85766602 73.11352539 C-15.13766602 73.11352539 -20.41766602 73.11352539 -25.85766602 73.11352539 C-24.40590195 65.97344359 -22.36838788 59.16117175 -20.08422852 52.24633789 C-19.71921234 51.13096649 -19.35419617 50.01559509 -18.9781189 48.86642456 C-18.20853309 46.51763052 -17.43690006 44.16950636 -16.66333008 41.82202148 C-15.48906371 38.25794338 -14.32125865 34.69179961 -13.15454102 31.12524414 C-12.40231664 28.83215077 -11.64972447 26.53917801 -10.89672852 24.24633789 C-10.37932602 22.66769455 -10.37932602 22.66769455 -9.85147095 21.05715942 C-2.96446529 0.18116393 -2.96446529 0.18116393 0 0 Z " fill="#0E1C20" transform="translate(891.857666015625,778.886474609375)"/>
<path d="M0 0 C15.51 0 31.02 0 47 0 C47 4.62 47 9.24 47 14 C36.77 14 26.54 14 16 14 C16 18.95 16 23.9 16 29 C25.24 29 34.48 29 44 29 C44 33.29 44 37.58 44 42 C34.76 42 25.52 42 16 42 C16 47.61 16 53.22 16 59 C26.56 59 37.12 59 48 59 C48 63.62 48 68.24 48 73 C32.16 73 16.32 73 0 73 C0 48.91 0 24.82 0 0 Z " fill="#111F23" transform="translate(301,779)"/>
<path d="M0 0 C15.51 0 31.02 0 47 0 C47 4.62 47 9.24 47 14 C36.77 14 26.54 14 16 14 C16 18.95 16 23.9 16 29 C25.24 29 34.48 29 44 29 C44 33.29 44 37.58 44 42 C34.76 42 25.52 42 16 42 C16 47.61 16 53.22 16 59 C26.23 59 36.46 59 47 59 C47 63.62 47 68.24 47 73 C31.49 73 15.98 73 0 73 C0 48.91 0 24.82 0 0 Z " fill="#102024" transform="translate(428,885)"/>
<path d="M0 0 C3.47882183 2.9253729 6.10549854 6.04116215 7.75 10.3125 C7.75 12.6225 7.75 14.9325 7.75 17.3125 C2.8 17.3125 -2.15 17.3125 -7.25 17.3125 C-8.24 15.3325 -9.23 13.3525 -10.25 11.3125 C-14.56410518 8.37106465 -18.07933754 7.65441569 -23.25 8.3125 C-26.27938694 9.76883124 -26.27938694 9.76883124 -28.25 12.3125 C-28.74764342 15.36056595 -28.98346572 17.25394508 -27.18359375 19.8515625 C-24.35539777 21.98842168 -21.178494 22.6980069 -17.8125 23.625 C-8.07463942 26.50518119 1.92453553 29.47386425 7.75 38.3125 C10.24170405 43.2959081 9.60409742 51.32315903 8.1015625 56.58203125 C4.90297234 62.63748185 -0.43224862 66.94550691 -6.8125 69.1875 C-16.85464364 71.74006924 -27.15923857 71.53968782 -36.25 66.3125 C-41.21154147 63.13636171 -43.9333012 59.92247432 -45.83984375 54.33984375 C-46.25 52.3125 -46.25 52.3125 -46.25 47.3125 C-40.97 47.3125 -35.69 47.3125 -30.25 47.3125 C-29.940625 49.230625 -29.940625 49.230625 -29.625 51.1875 C-29.13056562 53.38509296 -29.13056562 53.38509296 -28.25 55.3125 C-24.08092108 57.63942777 -19.95299613 57.73241037 -15.25 57.3125 C-11.97808708 55.95434747 -9.75104494 54.81354494 -7.25 52.3125 C-6.58292452 48.89750409 -6.58292452 48.89750409 -7.25 45.3125 C-11.56301478 41.7957341 -15.87771507 40.27359637 -21.125 38.8125 C-30.21951222 36.09552741 -37.71599532 33.565635 -43.25 25.3125 C-45.0810765 19.8192705 -45.37927326 13.41167146 -43.37890625 7.921875 C-34.20918007 -7.83201522 -14.63685555 -7.59990577 0 0 Z " fill="#0D1B1E" transform="translate(479.25,782.6875)"/>
<path d="M0 0 C15.51 0 31.02 0 47 0 C47 4.29 47 8.58 47 13 C36.44 13 25.88 13 15 13 C15 18.28 15 23.56 15 29 C24.57 29 34.14 29 44 29 C44 33.29 44 37.58 44 42 C34.76 42 25.52 42 16 42 C16 47.61 16 53.22 16 59 C26.56 59 37.12 59 48 59 C48 63.62 48 68.24 48 73 C32.16 73 16.32 73 0 73 C0 48.91 0 24.82 0 0 Z " fill="#0D1D21" transform="translate(308,885)"/>
<path d="M0 0 C3.7904363 2.50007501 6.14908742 4.83544669 8 9 C8.52221668 12.01161851 8.77194098 14.94400911 9 18 C4.05 18 -0.9 18 -6 18 C-6.99 16.02 -7.98 14.04 -9 12 C-13.34529935 9.0372959 -16.80026223 8.5185428 -22 9 C-24.76142665 10.01736771 -25.68085371 10.36170741 -27 13 C-27.47577888 17.10122365 -27.47577888 17.10122365 -25.6953125 20.6015625 C-22.11158051 23.55772852 -17.26868972 24.63457939 -12.8671875 25.90234375 C-3.91890183 28.48717337 3.59837589 31.00559632 9 39 C11.34484651 43.68969302 10.4807722 49.9127593 10 55 C7.85183315 61.40434791 2.74675502 65.72843909 -3 69 C-11.96353708 72.34233586 -22.68237678 72.24832471 -31.7109375 69.1015625 C-37.29821807 66.41280291 -41.63997071 62.68176974 -44 56.875 C-45.07789195 53.62785049 -45 51.6593423 -45 48 C-39.72 48 -34.44 48 -29 48 C-28.34 50.31 -27.68 52.62 -27 55 C-23.57306395 58.12455934 -20.38120798 58.41564084 -15.92578125 58.22265625 C-12.22712808 57.79502292 -9.86409261 56.83429632 -7.1875 54.25 C-5.60609806 51.25365948 -5.50259616 49.33971153 -6 46 C-8.69766107 43.53736532 -11.31047477 42.38018108 -14.7734375 41.31640625 C-15.6809375 41.02830078 -16.5884375 40.74019531 -17.5234375 40.44335938 C-19.41624616 39.858663 -21.30947264 39.27531745 -23.203125 38.69335938 C-31.51114306 36.05150377 -36.68342259 32.98750174 -42 26 C-44.22615948 21.54768104 -43.50284649 15.83071626 -43 11 C-40.49013831 4.3452215 -35.82663198 0.46566103 -29.625 -2.75 C-19.9323231 -6.07267901 -8.8575244 -4.98556983 0 0 Z " fill="#0C1A1E" transform="translate(220,782)"/>
<path d="M0 0 C6.37120271 3.6388885 10.46260646 8.524249 13.2890625 15.25390625 C13.9765625 18.12890625 13.9765625 18.12890625 13.9765625 23.12890625 C9.0265625 23.12890625 4.0765625 23.12890625 -1.0234375 23.12890625 C-1.5596875 21.87078125 -2.0959375 20.61265625 -2.6484375 19.31640625 C-4.13434093 16.40135264 -4.98437673 15.15866683 -7.6484375 13.12890625 C-13.64108247 11.35330774 -18.81544172 11.00483567 -24.4609375 13.87890625 C-29.71240078 18.48994718 -31.76205702 22.85316382 -32.32421875 29.8984375 C-32.3428863 31.24597012 -32.3463618 32.59378466 -32.3359375 33.94140625 C-32.33392334 34.64483154 -32.33190918 35.34825684 -32.32983398 36.07299805 C-32.22352883 41.59641003 -31.247405 46.11633702 -29.0234375 51.12890625 C-28.6934375 52.11890625 -28.3634375 53.10890625 -28.0234375 54.12890625 C-25.59960673 55.29844041 -25.59960673 55.29844041 -23.0234375 56.12890625 C-22.3634375 56.45890625 -21.7034375 56.78890625 -21.0234375 57.12890625 C-15.33344908 57.72066505 -10.89914548 57.37937824 -6.0234375 54.12890625 C-3.8712492 51.75407778 -3.0450651 50.19378906 -2.0234375 47.12890625 C3.2565625 47.12890625 8.5365625 47.12890625 13.9765625 47.12890625 C12.74243211 55.76781899 9.93580443 61.36849128 3.0390625 66.80859375 C-5.85410876 72.5015708 -15.73423075 73.67159551 -25.9765625 71.50390625 C-34.29188174 68.90246559 -41.33663185 63.87529378 -45.4609375 56.06640625 C-50.76215379 44.36275482 -51.27919516 28.93309634 -46.9609375 16.81640625 C-42.50649431 7.19829289 -36.78919191 2.1069146 -27.0234375 -1.87109375 C-18.65403923 -4.66089317 -7.88433485 -3.78395335 0 0 Z " fill="#0D1B1E" transform="translate(682.0234375,780.87109375)"/>
<path d="M0 0 C7.52581438 4.48091775 12.30233456 9.96815645 15.2109375 18.31640625 C15.2109375 19.63640625 15.2109375 20.95640625 15.2109375 22.31640625 C9.9309375 22.31640625 4.6509375 22.31640625 -0.7890625 22.31640625 C-1.7790625 20.33640625 -2.7690625 18.35640625 -3.7890625 16.31640625 C-5.82962989 13.85072065 -6.65880174 13.3598265 -9.7890625 12.31640625 C-15.62421366 11.7941552 -21.02987542 11.5533281 -25.7890625 15.31640625 C-32.19258218 22.95986475 -31.72727678 32.78037372 -31.02392578 42.20410156 C-30.44099317 47.44685928 -29.20341829 51.38278502 -25.0234375 54.73046875 C-20.28123576 57.47497133 -16.17700157 57.92472195 -10.7890625 57.31640625 C-6.55107332 55.93090979 -4.60090202 54.4061745 -2.4140625 50.62890625 C-1.8778125 49.53578125 -1.3415625 48.44265625 -0.7890625 47.31640625 C4.4909375 47.31640625 9.7709375 47.31640625 15.2109375 47.31640625 C13.7476252 56.09628008 10.10511764 60.90393325 3.56640625 66.7734375 C-4.96010373 72.35879644 -14.92134968 72.6825009 -24.7890625 71.31640625 C-32.25612866 69.04731933 -38.77234564 65.14882828 -42.7890625 58.31640625 C-48.53840919 46.11067347 -50.61717639 31.0676055 -46.1640625 18.00390625 C-41.88021409 8.57048397 -35.65318703 2.08481007 -25.9609375 -1.82421875 C-17.52381041 -4.11013988 -7.93359915 -3.78229727 0 0 Z " fill="#0C1A1E" transform="translate(532.7890625,886.68359375)"/>
<path d="M0 0 C19.14 0 38.28 0 58 0 C58 4.29 58 8.58 58 13 C51.07 13 44.14 13 37 13 C37 32.8 37 52.6 37 73 C31.72 73 26.44 73 21 73 C21 53.2 21 33.4 21 13 C14.07 13 7.14 13 0 13 C0 8.71 0 4.42 0 0 Z " fill="#0D1B1F" transform="translate(554,885)"/>
<path d="M0 0 C18.81 0 37.62 0 57 0 C57 4.29 57 8.58 57 13 C50.07 13 43.14 13 36 13 C36 32.8 36 52.6 36 73 C30.72 73 25.44 73 20 73 C20 53.2 20 33.4 20 13 C13.4 13 6.8 13 0 13 C0 8.71 0 4.42 0 0 Z " fill="#0D1D21" transform="translate(363,885)"/>
<path d="M0 0 C18.81 0 37.62 0 57 0 C57 4.62 57 9.24 57 14 C50.07 14 43.14 14 36 14 C36 33.47 36 52.94 36 73 C31.05 73 26.1 73 21 73 C21 53.53 21 34.06 21 14 C14.07 14 7.14 14 0 14 C0 9.38 0 4.76 0 0 Z " fill="#0C1C20" transform="translate(236,779)"/>
<path d="M0 0 C4.93076834 4.69596985 8.42873977 10.10696251 8.828125 17.01171875 C8.99861271 26.06602805 8.94406155 33.41279058 3.1875 40.875 C-0.71043027 44.86800174 -3.56498647 45.82714984 -9.125 46 C-14.55791767 45.90049601 -17.74440642 44.86669435 -21.8203125 41.28125 C-27.35072972 34.94489258 -27.6728436 26.61210601 -27.59375 18.57421875 C-27.12585849 11.99867201 -25.17768202 6.16546253 -20.375 1.5 C-14.3155916 -2.78592302 -6.66907375 -2.96403278 0 0 Z " fill="#EFEDED" transform="translate(747.375,793.5)"/>
<path d="M0 0 C5.2183614 3.727401 7.98401155 7.73405657 9.625 13.875 C10.27428298 22.0121179 11.03598294 31.67652089 6.625 38.875 C3.48165307 42.29484504 0.03572038 45.63112945 -4.73046875 46.11328125 C-11.2546256 46.28425915 -15.1629057 45.91703231 -20.375 41.875 C-26.68888162 34.36660024 -27.18080898 25.29676654 -26.375 15.875 C-25.00243383 9.22256248 -22.45019691 4.57744577 -17.3125 0.0625 C-11.68131815 -2.21393521 -5.70791538 -1.90263846 0 0 Z " fill="#EFEDED" transform="translate(690.375,899.125)"/>
<path d="M0 0 C5.40869816 2.80971333 7.88071025 6.89563075 10.1171875 12.375 C12.21735871 20.90812809 11.72919783 30.38957753 7.8671875 38.3125 C5.18763652 42.56282225 2.62699707 44.66820215 -2.1328125 46.3125 C-7.45955711 46.96345836 -11.70422766 47.01380528 -16.5703125 44.625 C-22.42410449 39.34230967 -24.82085842 34.86046212 -25.35546875 27.06640625 C-25.5698015 18.40922672 -25.14474213 10.88861777 -19.6953125 3.875 C-14.28013593 -1.54017657 -7.28542701 -2.34841603 0 0 Z " fill="#EFEDEE" transform="translate(141.1328125,792.6875)"/>
<path d="M0 0 C5.28876836 2.54994189 8.84578155 6.18918744 11.0859375 11.64453125 C13.41240934 20.18487017 13.57614922 31.3717331 9.27734375 39.265625 C6.5023225 43.03354376 3.49667775 45.50110742 -1 47 C-6.97501722 47.53476918 -11.9124861 47.51280722 -17 44 C-22.93012449 37.74042415 -23.3634702 31.94860221 -23.375 23.6875 C-23.39949219 22.77548828 -23.42398437 21.86347656 -23.44921875 20.92382812 C-23.47879619 14.04707263 -22.24446367 8.51245065 -17.4777832 3.35205078 C-12.53184051 -1.17308232 -6.32597093 -0.95021538 0 0 Z " fill="#F0EDEE" transform="translate(397,792)"/>
<path d="M0 0 C17.61363636 0 17.61363636 0 22.74609375 4.546875 C28.61609418 10.90956132 29.40417802 17.28739836 29.25 25.73828125 C28.78851687 31.75919398 27.48576123 36.20144693 23.625 40.875 C15.57874164 47.38863772 11.05295177 47 0 47 C0 31.49 0 15.98 0 0 Z " fill="#F0EEEE" transform="translate(252,898)"/>
<path d="M0 0 C4.95 0 9.9 0 15 0 C15 24.09 15 48.18 15 73 C10.05 73 5.1 73 0 73 C0 48.91 0 24.82 0 0 Z " fill="#0C1A1D" transform="translate(621,885)"/>
<path d="M0 0 C2.371875 -0.04125 4.74375 -0.0825 7.1875 -0.125 C7.92508545 -0.14320801 8.6626709 -0.16141602 9.42260742 -0.18017578 C14.35634698 -0.22148461 18.0816528 0.28010251 21.8125 3.625 C23.53406432 7.06812863 23.80372839 10.2836779 23 14 C20.46546343 17.21954645 18.88702695 18.70432435 15 20 C12.42502932 20.07035439 9.88550071 20.0934934 7.3125 20.0625 C3.6928125 20.0315625 3.6928125 20.0315625 0 20 C0 13.4 0 6.8 0 0 Z " fill="#F1EEEF" transform="translate(585,792)"/>
<path d="M0 0 C18.81 0 37.62 0 57 0 C57 4.29 57 8.58 57 13 C49.74 13 42.48 13 35 13 C35 12.67 35 12.34 35 12 C41.6 12 48.2 12 55 12 C55 8.7 55 5.4 55 2 C37.18 2 19.36 2 1 2 C1 5.3 1 8.6 1 12 C7.93 12 14.86 12 22 12 C22 31.47 22 50.94 22 71 C21.34 71 20.68 71 20 71 C20 51.86 20 32.72 20 13 C13.4 13 6.8 13 0 13 C0 8.71 0 4.42 0 0 Z " fill="#081012" transform="translate(363,885)"/>
<path d="M0 0 C15.51 0 31.02 0 47 0 C47 4.29 47 8.58 47 13 C36.44 13 25.88 13 15 13 C15 12.67 15 12.34 15 12 C24.9 12 34.8 12 45 12 C45 8.7 45 5.4 45 2 C30.81 2 16.62 2 2 2 C2 24.77 2 47.54 2 71 C6.62 71 11.24 71 16 71 C16 71.33 16 71.66 16 72 C10.72 72 5.44 72 0 72 C0 48.24 0 24.48 0 0 Z " fill="#0B1315" transform="translate(428,885)"/>
<path d="M0 0 C6.93 0.33 13.86 0.66 21 1 C21.02255209 10.63113018 21.0409157 20.26224295 21.05181217 29.89339352 C21.05704074 34.36505549 21.06413789 38.83669853 21.07543945 43.30834961 C21.08626929 47.62011973 21.09227704 51.93187159 21.09487724 56.24365425 C21.09673132 57.89236298 21.1003516 59.54107066 21.10573006 61.18977165 C21.11294178 63.49103872 21.11399089 65.7922294 21.11352539 68.09350586 C21.115746 69.4058873 21.11796661 70.71826874 21.12025452 72.07041931 C21 75 21 75 20 76 C17.3226862 76.09981214 14.67695825 76.13879875 12 76.125 C10.87464844 76.13080078 10.87464844 76.13080078 9.7265625 76.13671875 C4.12661053 76.12661053 4.12661053 76.12661053 3 75 C2.86760436 73.61572359 2.80128785 72.22502539 2.76293945 70.83496094 C2.73653885 69.95024109 2.71013824 69.06552124 2.68293762 68.1539917 C2.65995102 67.19051819 2.63696442 66.22704468 2.61328125 65.234375 C2.57499458 63.75605194 2.57499458 63.75605194 2.53593445 62.24786377 C2.48381106 60.15635455 2.43439832 58.06477634 2.38745117 55.97314453 C2.31313419 52.77727212 2.22240382 49.58213796 2.13085938 46.38671875 C2.08232033 44.3567948 2.03476261 42.32684711 1.98828125 40.296875 C1.95922195 39.34149841 1.93016266 38.38612183 1.90022278 37.40179443 C1.81358511 32.81362812 1.76347554 29.15502858 4 25 C4.33 25 4.66 25 5 25 C5 41.5 5 58 5 75 C9.62 75 14.24 75 19 75 C19 50.91 19 26.82 19 2 C12.73 2 6.46 2 0 2 C0 1.34 0 0.68 0 0 Z " fill="#F9F8F8" transform="translate(839,777)"/>
<path d="M0 0 C15.51 0 31.02 0 47 0 C47 4.62 47 9.24 47 14 C36.44 14 25.88 14 15 14 C15 19.28 15 24.56 15 30 C14.67 30 14.34 30 14 30 C13.97315688 27.18743719 13.95323812 24.37512759 13.9375 21.5625 C13.92912109 20.76005859 13.92074219 19.95761719 13.91210938 19.13085938 C13.9034857 17.08704779 13.9477185 15.04316098 14 13 C15 12 15 12 17.86743164 11.88647461 C19.11903076 11.89171143 20.37062988 11.89694824 21.66015625 11.90234375 C22.65685585 11.90446617 22.65685585 11.90446617 23.6736908 11.90663147 C25.80333899 11.91224482 27.93288339 11.92479946 30.0625 11.9375 C31.50325369 11.94251329 32.94400903 11.94707649 34.38476562 11.95117188 C37.92321102 11.96221855 41.46159539 11.97949208 45 12 C45 8.7 45 5.4 45 2 C30.48 2 15.96 2 1 2 C1 24.77 1 47.54 1 71 C0.67 71 0.34 71 0 71 C0 47.57 0 24.14 0 0 Z " fill="#080E10" transform="translate(301,779)"/>
<path d="M0 0 C30 0 30 0 33 1 C32.67 1.66 32.34 2.32 32 3 C17.15 2.505 17.15 2.505 2 2 C2 24.77 2 47.54 2 71 C11.57 71 21.14 71 31 71 C22.38427198 76.74381868 10.35481638 73 0 73 C0 48.91 0 24.82 0 0 Z " fill="#202628" transform="translate(236,885)"/>
<path d="M0 0 C1.85562424 2.78343636 2.72320207 4.85327875 3.7265625 8 C4.0359375 8.969375 4.3453125 9.93875 4.6640625 10.9375 C4.98117187 11.948125 5.29828125 12.95875 5.625 14 C5.94984375 15.010625 6.2746875 16.02125 6.609375 17.0625 C9 24.61607143 9 24.61607143 9 28 C3.39 28 -2.22 28 -8 28 C-6.43618819 18.3043668 -3.20450331 9.25073597 0 0 Z " fill="#F0EEEF" transform="translate(527,795)"/>
<path d="M0 0 C2 1 2 1 2.96142578 3.59204102 C3.2861084 4.71795654 3.61079102 5.84387207 3.9453125 7.00390625 C4.29980469 8.21884766 4.65429688 9.43378906 5.01953125 10.68554688 C5.38818938 11.97781651 5.75667675 13.27013488 6.125 14.5625 C6.50058513 15.85893188 6.87687832 17.15515885 7.25390625 18.45117188 C8.17625639 21.63209734 9.08901802 24.81580019 10 28 C4.06 28 -1.88 28 -8 28 C-5.7474152 18.51543241 -2.97785646 9.2749047 0 0 Z " fill="#EEECED" transform="translate(898,795)"/>
<path d="M0 0 C18.48 0 36.96 0 56 0 C56 4.62 56 9.24 56 14 C49.07 14 42.14 14 35 14 C35 32.48 35 50.96 35 70 C34.67 70 34.34 70 34 70 C33.97687117 62.58540058 33.95908215 55.17080889 33.94818783 47.75618076 C33.94296018 44.31359652 33.93586469 40.87103688 33.92456055 37.4284668 C33.91165765 33.47444957 33.90677082 29.52044244 33.90234375 25.56640625 C33.89718246 24.32476212 33.89202118 23.08311798 33.88670349 21.80384827 C33.88662796 20.66274094 33.88655243 19.52163361 33.88647461 18.34594727 C33.884254 17.335569 33.88203339 16.32519073 33.87974548 15.28419495 C34 13 34 13 35 12 C36.41570123 11.91348389 37.835595 11.89295096 39.25390625 11.90234375 C40.53491211 11.90717773 40.53491211 11.90717773 41.84179688 11.91210938 C42.73962891 11.92048828 43.63746094 11.92886719 44.5625 11.9375 C45.46419922 11.94201172 46.36589844 11.94652344 47.29492188 11.95117188 C49.52997589 11.96299756 51.76499602 11.98093362 54 12 C54 8.7 54 5.4 54 2 C36.51 2 19.02 2 1 2 C1 5.3 1 8.6 1 12 C0.67 12 0.34 12 0 12 C0 8.04 0 4.08 0 0 Z " fill="#081215" transform="translate(237,779)"/>
<path d="M0 0 C6.93 0 13.86 0 21 0 C21 0.33 21 0.66 21 1 C14.73 1 8.46 1 2 1 C2 23.77 2 46.54 2 70 C5.63 70 9.26 70 13 70 C13 53.5 13 37 13 20 C13.33 20 13.66 20 14 20 C14 37.16 14 54.32 14 72 C9.38 72 4.76 72 0 72 C0 48.24 0 24.48 0 0 Z " fill="#050A0B" transform="translate(783,780)"/>
<path d="M0 0 C15.51 0 31.02 0 47 0 C47 4.29 47 8.58 47 13 C36.44 13 25.88 13 15 13 C15 12.67 15 12.34 15 12 C25.23 12 35.46 12 46 12 C46 8.7 46 5.4 46 2 C31.48 2 16.96 2 2 2 C2 14.87 2 27.74 2 41 C0 39 0 39 -0.22705078 35.19287109 C-0.22655007 33.55302585 -0.21548147 31.91315879 -0.1953125 30.2734375 C-0.19329834 29.50878174 -0.19128418 28.74412598 -0.18920898 27.95629883 C-0.17873306 25.095805 -0.15081049 22.23539657 -0.125 19.375 C-0.08375 12.98125 -0.0425 6.5875 0 0 Z " fill="#050D0F" transform="translate(308,885)"/>
<path d="M0 0 C0 4.62 0 9.24 0 14 C-15.51 14 -31.02 14 -47 14 C-46.34 13.01 -45.68 12.02 -45 11 C-43.12704468 10.63923645 -43.12704468 10.63923645 -40.82568359 10.65942383 C-39.53457169 10.65976372 -39.53457169 10.65976372 -38.21737671 10.66011047 C-37.28712677 10.67559433 -36.35687683 10.69107819 -35.3984375 10.70703125 C-34.44683746 10.71127609 -33.49523743 10.71552094 -32.51480103 10.71989441 C-29.46791586 10.73672104 -26.42168609 10.77438046 -23.375 10.8125 C-21.31250954 10.82754169 -19.25000873 10.84123099 -17.1875 10.85351562 C-12.1247465 10.88663761 -7.06248446 10.93844716 -2 11 C-2 8.36 -2 5.72 -2 3 C-11.57 2.67 -21.14 2.34 -31 2 C-31 1.67 -31 1.34 -31 1 C-27.14593663 0.83088717 -23.29173507 0.66514962 -19.4375 0.5 C-18.35146484 0.45230469 -17.26542969 0.40460937 -16.14648438 0.35546875 C-15.08623047 0.31035156 -14.02597656 0.26523437 -12.93359375 0.21875 C-11.4803772 0.1559082 -11.4803772 0.1559082 -9.99780273 0.09179688 C-6.66662276 -0.01020847 -3.33274138 0 0 0 Z " fill="#1E2729" transform="translate(475,944)"/>
<path d="M0 0 C0 19.8 0 39.6 0 60 C-5.28 60 -10.56 60 -16 60 C-16 59.34 -16 58.68 -16 58 C-14 57 -14 57 -3 57 C-3 38.52 -3 20.04 -3 1 C-1 0 -1 0 0 0 Z " fill="#17272B" transform="translate(399,898)"/>
<path d="M0 0 C2 2 2 2 2.22705078 4.98095703 C2.21657715 6.22731934 2.20610352 7.47368164 2.1953125 8.7578125 C2.19031738 9.97098145 2.18532227 11.18415039 2.18017578 12.43408203 C2.16196777 13.98208496 2.14375977 15.53008789 2.125 17.125 C2.08375 22.03375 2.0425 26.9425 2 32 C17.18 32 32.36 32 48 32 C48 32.66 48 33.32 48 34 C32.16 34 16.32 34 0 34 C0 22.78 0 11.56 0 0 Z " fill="#1B2123" transform="translate(308,924)"/>
<path d="M0 0 C19.14 0 38.28 0 58 0 C58 0.33 58 0.66 58 1 C48.76 1.33 39.52 1.66 30 2 C30 2.33 30 2.66 30 3 C21.09 3 12.18 3 3 3 C3 5.64 3 8.28 3 11 C8.94 11 14.88 11 21 11 C21 11.33 21 11.66 21 12 C20.15236084 11.99214478 20.15236084 11.99214478 19.28759766 11.98413086 C16.7334097 11.96337578 14.17923947 11.9503446 11.625 11.9375 C10.73554687 11.92912109 9.84609375 11.92074219 8.9296875 11.91210938 C8.07890625 11.90888672 7.228125 11.90566406 6.3515625 11.90234375 C5.56604004 11.89710693 4.78051758 11.89187012 3.97119141 11.88647461 C1.92227332 11.87426047 1.92227332 11.87426047 0 13 C0 8.71 0 4.42 0 0 Z " fill="#1D2C2F" transform="translate(554,885)"/>
<path d="M0 0 C4.95 0 9.9 0 15 0 C15 0.66 15 1.32 15 2 C14.34 2 13.68 2 13 2 C13 4.31 13 6.62 13 9 C12.67 9 12.34 9 12 9 C12 7.02 12 5.04 12 3 C9.03 3 6.06 3 3 3 C3 17.85 3 32.7 3 48 C1.68 47.67 0.36 47.34 -1 47 C-0.67 31.49 -0.34 15.98 0 0 Z " fill="#2A373A" transform="translate(772,885)"/>
<path d="M0 0 C9.24 0 18.48 0 28 0 C28 3.96 28 7.92 28 12 C18.43 12 8.86 12 -1 12 C-1 17.61 -1 23.22 -1 29 C-1.33 29 -1.66 29 -2 29 C-2.02683987 26.02077407 -2.04676037 23.04178705 -2.0625 20.0625 C-2.07087891 19.21236328 -2.07925781 18.36222656 -2.08789062 17.48632812 C-2.09111328 16.67744141 -2.09433594 15.86855469 -2.09765625 15.03515625 C-2.10289307 14.2862915 -2.10812988 13.53742676 -2.11352539 12.76586914 C-2 11 -2 11 -1 10 C0.99964982 9.91241997 3.0023611 9.89303424 5.00390625 9.90234375 C6.21884766 9.90556641 7.43378906 9.90878906 8.68554688 9.91210938 C9.96494141 9.92048828 11.24433594 9.92886719 12.5625 9.9375 C13.84576172 9.94201172 15.12902344 9.94652344 16.45117188 9.95117188 C19.63416022 9.96300455 22.81705762 9.97948932 26 10 C26 7.03 26 4.06 26 1 C17.42 1 8.84 1 0 1 C0 0.67 0 0.34 0 0 Z " fill="#01080A" transform="translate(444,915)"/>
<path d="M0 0 C0.66 0 1.32 0 2 0 C2 3.96 2 7.92 2 12 C-4.93 12 -11.86 12 -19 12 C-19 30.48 -19 48.96 -19 68 C-19.33 68 -19.66 68 -20 68 C-20.02312883 60.58540058 -20.04091785 53.17080889 -20.05181217 45.75618076 C-20.05703982 42.31359652 -20.06413531 38.87103688 -20.07543945 35.4284668 C-20.08834235 31.47444957 -20.09322918 27.52044244 -20.09765625 23.56640625 C-20.10281754 22.32476212 -20.10797882 21.08311798 -20.11329651 19.80384827 C-20.11337204 18.66274094 -20.11344757 17.52163361 -20.11352539 16.34594727 C-20.115746 15.335569 -20.11796661 14.32519073 -20.12025452 13.28419495 C-20 11 -20 11 -19 10 C-17.58429877 9.91348389 -16.164405 9.89295096 -14.74609375 9.90234375 C-13.46508789 9.90717773 -13.46508789 9.90717773 -12.15820312 9.91210938 C-11.26037109 9.92048828 -10.36253906 9.92886719 -9.4375 9.9375 C-8.53580078 9.94201172 -7.63410156 9.94652344 -6.70507812 9.95117188 C-4.47002411 9.96299756 -2.23500398 9.98093362 0 10 C0 6.7 0 3.4 0 0 Z " fill="#05090A" transform="translate(291,781)"/>
<path d="M0 0 C2.63595772 2.63595772 3.07702112 5.06187181 4.125 8.625 C4.47820313 9.81351563 4.83140625 11.00203125 5.1953125 12.2265625 C5.46085938 13.14179687 5.72640625 14.05703125 6 15 C5.01 15.33 4.02 15.66 3 16 C3 27.55 3 39.1 3 51 C2.01 51 1.02 51 0 51 C0 34.17 0 17.34 0 0 Z " fill="#C4C7C8" transform="translate(797,801)"/>
<path d="M0 0 C3.465 1.485 3.465 1.485 7 3 C6.01 3.33 5.02 3.66 4 4 C3.34 3.67 2.68 3.34 2 3 C2.00523682 4.12905762 2.01047363 5.25811523 2.01586914 6.42138672 C2.0341117 10.65201001 2.04550169 14.8826299 2.05493164 19.11328125 C2.05992817 20.93652941 2.06672764 22.75977362 2.07543945 24.58300781 C2.08771187 27.219411 2.09327525 29.85576074 2.09765625 32.4921875 C2.10281754 33.29365204 2.10797882 34.09511658 2.11329651 34.92086792 C2.11385276 40.66561269 1.66283492 46.29495059 1 52 C0.67 52 0.34 52 0 52 C0 34.84 0 17.68 0 0 Z " fill="#FBF6F1" transform="translate(469,510)"/>
<path d="M0 0 C6.3642386 2.18202466 10.32547944 6.32547944 15 11 C15.75925781 11.56589844 16.51851562 12.13179688 17.30078125 12.71484375 C20.60465437 15.51189987 23.07058448 18.63380661 25.6875 22.0625 C26.41549805 22.99932617 26.41549805 22.99932617 27.15820312 23.95507812 C29.19953778 26.59332719 31.14794891 29.22192337 33 32 C35.05925139 32.72382467 35.05925139 32.72382467 37 33 C36.7215625 33.86625 36.7215625 33.86625 36.4375 34.75 C35.95976454 37.20692525 36.24270636 38.64397534 37 41 C34.05670359 38.34362871 32.06292017 35.22722227 29.875 31.9375 C25.72218876 25.81693725 21.12549995 20.34300271 16 15 C15.40445313 14.36449219 14.80890625 13.72898437 14.1953125 13.07421875 C10.34465592 9.07273 6.17520785 5.69806795 1.72265625 2.3828125 C1.15417969 1.92648437 0.58570313 1.47015625 0 1 C0 0.67 0 0.34 0 0 Z " fill="#178DC9" transform="translate(578,305)"/>
<path d="M0 0 C10.89 0 21.78 0 33 0 C33 3.96 33 7.92 33 12 C32.34 12 31.68 12 31 12 C31 8.7 31 5.4 31 2 C20.77 2 10.54 2 0 2 C0 1.34 0 0.68 0 0 Z " fill="#020B0E" transform="translate(323,944)"/>
<path d="M0 0 C0.33 0 0.66 0 1 0 C1 13.53 1 27.06 1 41 C4.63 41 8.26 41 12 41 C12.33 41.99 12.66 42.98 13 44 C8.38 44 3.76 44 -1 44 C-1.05188352 34.0253929 -0.86196133 24.09361061 -0.5 14.125 C-0.45160031 12.74349736 -0.40342227 11.36198694 -0.35546875 9.98046875 C-0.23914338 6.65356319 -0.12062283 3.32675204 0 0 Z " fill="#182528" transform="translate(845,808)"/>
<path d="M0 0 C0.33 0 0.66 0 1 0 C1.04241723 2.33294775 1.04092937 4.66702567 1 7 C-1.05014613 9.05014613 -5.12884588 8.23057975 -7.9375 8.25 C-8.67935547 8.270625 -9.42121094 8.29125 -10.18554688 8.3125 C-12.33984375 8.328125 -12.33984375 8.328125 -16 8 C-16.66 7.01 -17.32 6.02 -18 5 C-17.67 4.01 -17.34 3.02 -17 2 C-16.67 2.99 -16.34 3.98 -16 5 C-10.72 5 -5.44 5 0 5 C0 3.35 0 1.7 0 0 Z " fill="#E3E3E3" transform="translate(548,904)"/>
<path d="M0 0 C8.25 0 16.5 0 25 0 C25.33 0.99 25.66 1.98 26 3 C25.34 3.66 24.68 4.32 24 5 C24 4.34 24 3.68 24 3 C15.75 3 7.5 3 -1 3 C-0.67 2.01 -0.34 1.02 0 0 Z " fill="#414D50" transform="translate(516,833)"/>
<path d="M0 0 C0.33 0 0.66 0 1 0 C1.33 5.61 1.66 11.22 2 17 C7.61 17 13.22 17 19 17 C18.67 17.66 18.34 18.32 18 19 C14.37918537 20.20693821 11.0749281 20.10782079 7.3125 20.0625 C3.6928125 20.0315625 3.6928125 20.0315625 0 20 C0 13.4 0 6.8 0 0 Z " fill="#D5D6D7" transform="translate(585,792)"/>
<path d="M0 0 C3.70654622 1.55339246 6.08370297 3.82562416 8.9140625 6.6484375 C9.83960938 7.57140625 10.76515625 8.494375 11.71875 9.4453125 C12.19570313 9.92645508 12.67265625 10.40759766 13.1640625 10.90332031 C14.62024027 12.37020527 16.08677484 13.8261189 17.5546875 15.28125 C18.47765625 16.20679688 19.400625 17.13234375 20.3515625 18.0859375 C21.61734131 19.3551001 21.61734131 19.3551001 22.90869141 20.64990234 C24.76207347 22.73263125 25.9308175 24.44882606 27 27 C26.01 26.67 25.02 26.34 24 26 C24 25.34 24 24.68 24 24 C23.01 23.67 22.02 23.34 21 23 C19.66796875 21.64453125 19.66796875 21.64453125 18.1875 19.8125 C13.95966161 14.79766139 9.30277076 10.24962863 4.6237793 5.66137695 C4.02734619 5.07316162 3.43091309 4.48494629 2.81640625 3.87890625 C2.27443604 3.3485376 1.73246582 2.81816895 1.17407227 2.27172852 C0 1 0 1 0 0 Z " fill="#D92821" transform="translate(437,409)"/>
<path d="M0 0 C2 3 2 3 2 7 C-3.28 7 -8.56 7 -14 7 C-14 6.01 -14 5.02 -14 4 C-9.38 4 -4.76 4 0 4 C0 2.68 0 1.36 0 0 Z " fill="#1B2426" transform="translate(559,845)"/>
<path d="M0 0 C0.33 0 0.66 0 1 0 C1 6.6 1 13.2 1 20 C5.62 20 10.24 20 15 20 C15 20.66 15 21.32 15 22 C9.72 22 4.44 22 -1 22 C-0.67 14.74 -0.34 7.48 0 0 Z " fill="#1D2122" transform="translate(576,936)"/>
<path d="M0 0 C0.33 0.66 0.66 1.32 1 2 C1.74765625 1.97679687 2.4953125 1.95359375 3.265625 1.9296875 C4.25046875 1.91164062 5.2353125 1.89359375 6.25 1.875 C7.22453125 1.85179687 8.1990625 1.82859375 9.203125 1.8046875 C12.0196498 2.00137219 13.60949036 2.55431084 16 4 C13.07073378 5.46463311 10.44743219 5.13182708 7.1875 5.125 C5.35251953 5.12886719 5.35251953 5.12886719 3.48046875 5.1328125 C0.50982844 5.01945473 -2.1189481 4.69145246 -5 4 C-2 2 -2 2 0 2 C0 1.34 0 0.68 0 0 Z " fill="#2C86BC" transform="translate(504,136)"/>
<path d="M0 0 C0.33 0 0.66 0 1 0 C1.33 6.27 1.66 12.54 2 19 C-3.28 19 -8.56 19 -14 19 C-14 18.34 -14 17.68 -14 17 C-9.38 17 -4.76 17 0 17 C0 11.39 0 5.78 0 0 Z " fill="#1E2224" transform="translate(397,939)"/>
<path d="M0 0 C6.27 0 12.54 0 19 0 C19.33 1.98 19.66 3.96 20 6 C19.34 4.68 18.68 3.36 18 2 C15.20743781 2.11361602 12.41655882 2.2403589 9.625 2.375 C8.8309375 2.4059375 8.036875 2.436875 7.21875 2.46875 C2.63332625 2.51816421 2.63332625 2.51816421 -1 5 C-0.67 3.35 -0.34 1.7 0 0 Z " fill="#091013" transform="translate(890,779)"/>
<path d="M0 0 C1.4609375 1.04296875 1.4609375 1.04296875 3 3 C3.4765625 6.36328125 3.4765625 6.36328125 3.625 10.3125 C3.81946027 14.96565641 4.13382523 19.42063338 5 24 C4.34 24 3.68 24 3 24 C0.26022667 15.86222087 -0.36741339 8.55937129 0 0 Z " fill="#E7E7E8" transform="translate(482,914)"/>
<path d="M0 0 C6.98629919 -0.50604984 11.20200116 -0.0333905 17 4 C17 4.99 17 5.98 17 7 C16.34 7 15.68 7 15 7 C15 6.01 15 5.02 15 4 C10.05 3.67 5.1 3.34 0 3 C0 2.01 0 1.02 0 0 Z " fill="#E7E7E8" transform="translate(661,792)"/>
<path d="M0 0 C0.33 0 0.66 0 1 0 C1 5.61 1 11.22 1 17 C8.92 17 16.84 17 25 17 C25 17.33 25 17.66 25 18 C12.625 18.495 12.625 18.495 0 19 C-1.66413655 15.6717269 -0.81867406 12.00266027 -0.5625 8.375 C-0.51029297 7.57320312 -0.45808594 6.77140625 -0.40429688 5.9453125 C-0.27451629 3.96320897 -0.13790265 1.98155501 0 0 Z " fill="#2A3539" transform="translate(443,927)"/>
<path d="M0 0 C5.28 0 10.56 0 16 0 C16 1.32 16 2.64 16 4 C15.34 4 14.68 4 14 4 C14 3.34 14 2.68 14 2 C10.04 2 6.08 2 2 2 C2 3.65 2 5.3 2 7 C1.34 6.34 0.68 5.68 0 5 C0 3.35 0 1.7 0 0 Z " fill="#212729" transform="translate(175,830)"/>
<path d="M0 0 C0.99 0 1.98 0 3 0 C3.33 0.66 3.66 1.32 4 2 C2.92591043 4.60474038 1.79954367 7.09966038 0.5625 9.625 C0.22412109 10.33140625 -0.11425781 11.0378125 -0.46289062 11.765625 C-1.30154879 13.51381384 -2.14987847 15.25735686 -3 17 C-4.80937684 13.38124631 -3.48774807 9.47872828 -2.26171875 5.76171875 C-1.53764157 3.82970239 -0.77205352 1.91335003 0 0 Z " fill="#168BC6" transform="translate(402,345)"/>
<path d="M0 0 C0.99 0.66 1.98 1.32 3 2 C2.52433594 2.81210937 2.52433594 2.81210937 2.0390625 3.640625 C0.81692026 6.4157149 0.59056564 8.73208098 0.375 11.75 C0.30023438 12.73484375 0.22546875 13.7196875 0.1484375 14.734375 C0.09945312 15.48203125 0.05046875 16.2296875 0 17 C-0.99 17 -1.98 17 -3 17 C-3 14.03 -3 11.06 -3 8 C-2.34 8 -1.68 8 -1 8 C-0.67 5.36 -0.34 2.72 0 0 Z " fill="#E0E1E2" transform="translate(177,787)"/>
<path d="M0 0 C1.98 0.66 3.96 1.32 6 2 C6 4.31 6 6.62 6 9 C5.01 8.67 4.02 8.34 3 8 C2.34 8.66 1.68 9.32 1 10 C-0.1577506 6.52674819 -0.06866652 3.63932552 0 0 Z " fill="#DE2D21" transform="translate(394,414)"/>
<path d="M0 0 C1.60875 0.2784375 1.60875 0.2784375 3.25 0.5625 C6.40391546 0.9304568 8.09818492 1.04465343 11 0 C8.84545751 2.35716404 6.80280126 3.78966144 3.9375 5.1875 C2.89916016 5.70376953 2.89916016 5.70376953 1.83984375 6.23046875 C0 7 0 7 -2 7 C-2.33 6.01 -2.66 5.02 -3 4 C-2.34 3.67 -1.68 3.34 -1 3 C-0.67 2.01 -0.34 1.02 0 0 Z " fill="#E33122" transform="translate(551,504)"/>
<path d="M0 0 C0.33 0.66 0.66 1.32 1 2 C-7.8878327 15.59838403 -7.8878327 15.59838403 -11.25 16.8125 C-11.8275 16.874375 -12.405 16.93625 -13 17 C-11.91317435 13.73952306 -11.36439499 13.29603011 -8.75 11.3125 C-4.81529075 8.09171738 -2.43487326 4.42092196 0 0 Z " fill="#F6F6F5" transform="translate(769,833)"/>
<path d="M0 0 C0.66 0.33 1.32 0.66 2 1 C2.6328125 3.06640625 2.6328125 3.06640625 3.125 5.5625 C3.29257812 6.38878906 3.46015625 7.21507812 3.6328125 8.06640625 C3.75398437 8.70449219 3.87515625 9.34257813 4 10 C1.03 9.505 1.03 9.505 -2 9 C-1.34 6.03 -0.68 3.06 0 0 Z " fill="#E4E4E4" transform="translate(898,795)"/>
<path d="M0 0 C0.33 0 0.66 0 1 0 C2.20568053 4.67201205 2.09382426 9.21496292 2 14 C1.01 14.495 1.01 14.495 0 15 C-0.93742541 12.18772378 -1.13470844 10.41253156 -1.125 7.5 C-1.12757813 6.7265625 -1.13015625 5.953125 -1.1328125 5.15625 C-1 3 -1 3 0 0 Z " fill="#DEE7EC" transform="translate(409,159)"/>
<path d="M0 0 C0.70189453 0.00451172 1.40378906 0.00902344 2.12695312 0.01367188 C3.85550538 0.02543073 5.58401365 0.04336546 7.3125 0.0625 C7.3125 0.3925 7.3125 0.7225 7.3125 1.0625 C6.40886719 1.08828125 5.50523437 1.1140625 4.57421875 1.140625 C3.39472656 1.19734375 2.21523438 1.2540625 1 1.3125 C-0.75763672 1.38210938 -0.75763672 1.38210938 -2.55078125 1.453125 C-5.78219532 1.74099633 -5.78219532 1.74099633 -7.41796875 4.109375 C-7.83691406 4.75390625 -8.25585938 5.3984375 -8.6875 6.0625 C-9.6775 6.0625 -10.6675 6.0625 -11.6875 6.0625 C-11.3575 4.4125 -11.0275 2.7625 -10.6875 1.0625 C-7.06882441 -0.1437252 -3.76243749 -0.04566918 0 0 Z " fill="#152427" transform="translate(898.6875,780.9375)"/>
<path d="M0 0 C0.99 1.32 1.98 2.64 3 4 C2.34 5.32 1.68 6.64 1 8 C-3.62 8 -8.24 8 -13 8 C-13 7.67 -13 7.34 -13 7 C-7.555 6.505 -7.555 6.505 -2 6 C-1.34 4.02 -0.68 2.04 0 0 Z " fill="#C0C4C5" transform="translate(828,844)"/>
<path d="M0 0 C0 4.17561407 -1.83352478 5.53957787 -4.5 8.6875 C-5.3353125 9.68136719 -6.170625 10.67523438 -7.03125 11.69921875 C-8.00578125 12.83810547 -8.00578125 12.83810547 -9 14 C-9 10.40239524 -8.10487704 9.7784377 -6 7 C-5.855625 6.29875 -5.71125 5.5975 -5.5625 4.875 C-5 3 -5 3 -3 1.8125 C-2.34 1.544375 -1.68 1.27625 -1 1 C-0.67 0.67 -0.34 0.34 0 0 Z " fill="#0F8ECE" transform="translate(422,321)"/>
<path d="M0 0 C-3.84899168 2.4056198 -7.54644135 2.71267364 -12 3 C-12.66 2.34 -13.32 1.68 -14 1 C-8.83955235 -0.512545 -5.34001821 -1.33500455 0 0 Z " fill="#E0E8EB" transform="translate(810,731)"/>
<path d="M0 0 C0 3.96130371 -1.34877125 4.82914401 -4 7.6875 C-4.7425 8.49574219 -5.485 9.30398438 -6.25 10.13671875 C-6.8275 10.75160156 -7.405 11.36648438 -8 12 C-8 9 -8 9 -7 6 C-6.01 6 -5.02 6 -4 6 C-4 4.68 -4 3.36 -4 2 C-2.68 1.34 -1.36 0.68 0 0 Z " fill="#D81D16" transform="translate(520,391)"/>
<path d="M0 0 C2.475 0.99 2.475 0.99 5 2 C5 4.97 5 7.94 5 11 C1.71779105 9.35889552 1.25429211 6.30677012 0 3 C0 2.01 0 1.02 0 0 Z " fill="#178CC8" transform="translate(618,352)"/>
<path d="M0 0 C6.52307692 1.47692308 6.52307692 1.47692308 8.9375 4.125 C9.288125 4.74375 9.63875 5.3625 10 6 C9.67 6.66 9.34 7.32 9 8 C7.88625 7.071875 7.88625 7.071875 6.75 6.125 C4.51198812 4.39562719 2.56260013 3.13893339 0 2 C0 1.34 0 0.68 0 0 Z " fill="#E6E7E7" transform="translate(531,885)"/>
<path d="M0 0 C2.97 0 5.94 0 9 0 C9 0.99 9 1.98 9 3 C6.03 3 3.06 3 0 3 C0 2.01 0 1.02 0 0 Z " fill="#E7E6E6" transform="translate(661,836)"/>
<path d="M0 0 C0.66 0 1.32 0 2 0 C2 0.66 2 1.32 2 2 C6.95 2 11.9 2 17 2 C17 2.33 17 2.66 17 3 C9.08 3.495 9.08 3.495 1 4 C0.67 2.68 0.34 1.36 0 0 Z " fill="#E6E6E6" transform="translate(212,798)"/>
<path d="M0 0 C0.88935377 3.303314 1.46274105 6.62294375 2 10 C1.01 10.33 0.02 10.66 -1 11 C-2.26264601 6.70700357 -1.62950412 4.12168689 0 0 Z " fill="#E9E9E9" transform="translate(527,795)"/>
<path d="M0 0 C1.11375 0.3403125 1.11375 0.3403125 2.25 0.6875 C-0.60306797 3.01222205 -3.29074837 4.4383258 -6.75 5.6875 C-6.75 2.6875 -6.75 2.6875 -5.0625 0.9375 C-2.75 -0.3125 -2.75 -0.3125 0 0 Z " fill="#E7E7E9" transform="translate(732.75,793.3125)"/>
<path d="M0 0 C0.66 0.33 1.32 0.66 2 1 C0.88121617 2.17262904 -0.24523051 3.33795138 -1.375 4.5 C-2.00148438 5.1496875 -2.62796875 5.799375 -3.2734375 6.46875 C-5 8 -5 8 -7 8 C-7 6.68 -7 5.36 -7 4 C-6.401875 3.896875 -5.80375 3.79375 -5.1875 3.6875 C-2.71756736 2.91123545 -1.67748765 1.92911079 0 0 Z " fill="#138FCC" transform="translate(431,312)"/>
<path d="M0 0 C0.58203125 1.875 0.58203125 1.875 1 4 C-0.3125 6 -0.3125 6 -2 8 C-2.69580267 9.31836295 -3.37224433 10.64791086 -4 12 C-5 9 -5 9 -4.00390625 6.73828125 C-3.52824219 5.93777344 -3.05257812 5.13726562 -2.5625 4.3125 C-2.08941406 3.50425781 -1.61632812 2.69601563 -1.12890625 1.86328125 C-0.75636719 1.24839844 -0.38382813 0.63351563 0 0 Z " fill="#1076B4" transform="translate(160,120)"/>
<path d="M0 0 C0.33 0 0.66 0 1 0 C1 3.3 1 6.6 1 10 C0.01 10 -0.98 10 -2 10 C-1.54177532 6.53058454 -1.10868317 3.32604951 0 0 Z " fill="#1A2224" transform="translate(651,904)"/>
<path d="M0 0 C0.66 1.32 1.32 2.64 2 4 C-3.28 3.67 -8.56 3.34 -14 3 C-14 2.67 -14 2.34 -14 2 C-9.38 2 -4.76 2 0 2 C0 1.34 0 0.68 0 0 Z " fill="#1B292A" transform="translate(623,847)"/>
<path d="M0 0 C0.66 0 1.32 0 2 0 C2 0.66 2 1.32 2 2 C2.99 2.33 3.98 2.66 5 3 C5.33 4.98 5.66 6.96 6 9 C0.42857143 3.85714286 0.42857143 3.85714286 0 0 Z " fill="#E6E7E8" transform="translate(666,933)"/>
<path d="M0 0 C3.5625 0.25 3.5625 0.25 7 1 C7.33 1.66 7.66 2.32 8 3 C4.06329512 4.31223496 1.87511856 3.24296256 -2 2 C-1.34 1.34 -0.68 0.68 0 0 Z " fill="#E7E7E8" transform="translate(273,885)"/>
<path d="M0 0 C0.99 0 1.98 0 3 0 C3.625 3.375 3.625 3.375 4 7 C3.34 7.66 2.68 8.32 2 9 C1.34 6.03 0.68 3.06 0 0 Z " fill="#E1E1E2" transform="translate(930,843)"/>
<path d="M0 0 C0.33 0 0.66 0 1 0 C1.22134176 2.12368444 1.42670007 4.24904024 1.625 6.375 C1.74101562 7.55835938 1.85703125 8.74171875 1.9765625 9.9609375 C1.98429687 10.96382812 1.99203125 11.96671875 2 13 C1.34 13.66 0.68 14.32 0 15 C-1.09651823 11.58860997 -0.94215473 8.79344419 -0.5625 5.25 C-0.46066406 4.26515625 -0.35882813 3.2803125 -0.25390625 2.265625 C-0.17011719 1.51796875 -0.08632813 0.7703125 0 0 Z " fill="#C7C8C9" transform="translate(488,826)"/>
<path d="M0 0 C0.33 0.66 0.66 1.32 1 2 C-0.39789678 4.79579355 -2.2628997 5.59807058 -5 7 C-5.66 6.67 -6.32 6.34 -7 6 C-3.375 1.125 -3.375 1.125 0 0 Z " fill="#DF2C1E" transform="translate(423,324)"/>
<path d="M0 0 C-0.99 0.66 -1.98 1.32 -3 2 C-6.1875 1.125 -6.1875 1.125 -9 0 C-9 -0.33 -9 -0.66 -9 -1 C-5.22102349 -2.0497157 -3.35080929 -2.10976881 0 0 Z " fill="#E4E4E5" transform="translate(218,853)"/>
<path d="M0 0 C0 0.99 0 1.98 0 3 C-0.99 3.33 -1.98 3.66 -3 4 C-3.33 3.01 -3.66 2.02 -4 1 C-2.68 0.67 -1.36 0.34 0 0 Z M-6 2 C-5.34 2 -4.68 2 -4 2 C-4 2.99 -4 3.98 -4 5 C-4.99 5 -5.98 5 -7 5 C-6.67 4.01 -6.34 3.02 -6 2 Z " fill="#081316" transform="translate(415,841)"/>
<path d="M0 0 C3.53600465 1.91135386 5.78972846 3.62642766 8 7 C5.525 6.01 5.525 6.01 3 5 C3 4.34 3 3.68 3 3 C2.01 3 1.02 3 0 3 C0 2.01 0 1.02 0 0 Z " fill="#1E86C5" transform="translate(428,485)"/>
<path d="M0 0 C2.64 0 5.28 0 8 0 C7.67 0.99 7.34 1.98 7 3 C4.69 3 2.38 3 0 3 C0 2.01 0 1.02 0 0 Z " fill="#DA4238" transform="translate(515,285)"/>
<path d="M0 0 C0.33 0.66 0.66 1.32 1 2 C-1.12780579 4.34058637 -3.11562221 5.70700306 -6 7 C-4.60667426 3.63279613 -3.0210714 2.0140476 0 0 Z " fill="#0B1114" transform="translate(499,889)"/>
<path d="M0 0 C0 0.66 0 1.32 0 2 C-0.66 2 -1.32 2 -2 2 C-2 2.66 -2 3.32 -2 4 C-4.31 4 -6.62 4 -9 4 C-3 0 -3 0 0 0 Z " fill="#E6E7E7" transform="translate(685,848)"/>
<path d="M0 0 C2 3 2 3 1.625 5.6875 C1.41875 6.450625 1.2125 7.21375 1 8 C0.34 7.67 -0.32 7.34 -1 7 C-0.67 4.69 -0.34 2.38 0 0 Z " fill="#1F282C" transform="translate(165,801)"/>
</svg>
